<mxfile host="app.diagrams.net" agent="Mozilla/5.0 (Windows NT 10.0; Win64; x64) AppleWebKit/537.36 (KHTML, like Gecko) Chrome/128.0.0.0 Safari/537.36" version="24.8.4">
  <diagram name="Page-1" id="KyVT9V_pLSJBO2KwNx2o">
    <mxGraphModel dx="1434" dy="772" grid="1" gridSize="10" guides="1" tooltips="1" connect="1" arrows="1" fold="1" page="1" pageScale="1" pageWidth="850" pageHeight="1100" math="0" shadow="0">
      <root>
        <mxCell id="0" />
        <mxCell id="1" parent="0" />
        <mxCell id="T4Tz61koRvboAz-m1Axt-25" value="" style="rounded=1;whiteSpace=wrap;html=1;" vertex="1" parent="1">
          <mxGeometry x="530" y="100" width="260" height="150" as="geometry" />
        </mxCell>
        <mxCell id="T4Tz61koRvboAz-m1Axt-6" style="edgeStyle=orthogonalEdgeStyle;rounded=0;orthogonalLoop=1;jettySize=auto;html=1;entryX=0;entryY=0.5;entryDx=0;entryDy=0;" edge="1" parent="1" source="T4Tz61koRvboAz-m1Axt-1" target="T4Tz61koRvboAz-m1Axt-3">
          <mxGeometry relative="1" as="geometry" />
        </mxCell>
        <mxCell id="T4Tz61koRvboAz-m1Axt-15" value="schema:follows" style="edgeLabel;html=1;align=center;verticalAlign=middle;resizable=0;points=[];labelBackgroundColor=default;" vertex="1" connectable="0" parent="T4Tz61koRvboAz-m1Axt-6">
          <mxGeometry x="0.0087" relative="1" as="geometry">
            <mxPoint x="-3" as="offset" />
          </mxGeometry>
        </mxCell>
        <mxCell id="T4Tz61koRvboAz-m1Axt-8" style="edgeStyle=orthogonalEdgeStyle;rounded=0;orthogonalLoop=1;jettySize=auto;html=1;entryX=0.5;entryY=1;entryDx=0;entryDy=0;" edge="1" parent="1" source="T4Tz61koRvboAz-m1Axt-1" target="T4Tz61koRvboAz-m1Axt-2">
          <mxGeometry relative="1" as="geometry" />
        </mxCell>
        <mxCell id="T4Tz61koRvboAz-m1Axt-14" value="schema:occupationalUnit" style="edgeLabel;html=1;align=center;verticalAlign=middle;resizable=0;points=[];labelBackgroundColor=default;" vertex="1" connectable="0" parent="T4Tz61koRvboAz-m1Axt-8">
          <mxGeometry x="-0.02" y="-1" relative="1" as="geometry">
            <mxPoint x="-1" as="offset" />
          </mxGeometry>
        </mxCell>
        <mxCell id="T4Tz61koRvboAz-m1Axt-1" value="a schema:Person" style="ellipse;whiteSpace=wrap;html=1;aspect=fixed;fillColor=#647687;strokeColor=#314354;fontColor=#ffffff;fontSize=15;fontStyle=1" vertex="1" parent="1">
          <mxGeometry x="355" y="340" width="140" height="140" as="geometry" />
        </mxCell>
        <mxCell id="T4Tz61koRvboAz-m1Axt-2" value="a schema:Organization" style="ellipse;whiteSpace=wrap;html=1;aspect=fixed;fillColor=#a0522d;strokeColor=#6D1F00;fontColor=#ffffff;fontSize=13;fontStyle=1" vertex="1" parent="1">
          <mxGeometry x="355" y="100" width="140" height="140" as="geometry" />
        </mxCell>
        <mxCell id="T4Tz61koRvboAz-m1Axt-3" value="a schema:Person" style="ellipse;whiteSpace=wrap;html=1;aspect=fixed;fillColor=#647687;strokeColor=#314354;fontColor=#ffffff;fontSize=15;fontStyle=1" vertex="1" parent="1">
          <mxGeometry x="610" y="340" width="140" height="140" as="geometry" />
        </mxCell>
        <mxCell id="T4Tz61koRvboAz-m1Axt-11" style="edgeStyle=orthogonalEdgeStyle;rounded=0;orthogonalLoop=1;jettySize=auto;html=1;entryX=0.5;entryY=1;entryDx=0;entryDy=0;" edge="1" parent="1" source="T4Tz61koRvboAz-m1Axt-4" target="T4Tz61koRvboAz-m1Axt-1">
          <mxGeometry relative="1" as="geometry" />
        </mxCell>
        <mxCell id="T4Tz61koRvboAz-m1Axt-12" value="schema:creator&lt;div&gt;or&lt;/div&gt;&lt;div&gt;schema:manufacturer&lt;/div&gt;" style="edgeLabel;html=1;align=center;verticalAlign=middle;resizable=0;points=[];labelBackgroundColor=default;" vertex="1" connectable="0" parent="T4Tz61koRvboAz-m1Axt-11">
          <mxGeometry x="0.12" y="-1" relative="1" as="geometry">
            <mxPoint x="-1" as="offset" />
          </mxGeometry>
        </mxCell>
        <mxCell id="T4Tz61koRvboAz-m1Axt-20" style="edgeStyle=orthogonalEdgeStyle;rounded=0;orthogonalLoop=1;jettySize=auto;html=1;entryX=0;entryY=0.5;entryDx=0;entryDy=0;" edge="1" parent="1" source="T4Tz61koRvboAz-m1Axt-4" target="T4Tz61koRvboAz-m1Axt-19">
          <mxGeometry relative="1" as="geometry">
            <Array as="points">
              <mxPoint x="570" y="650" />
              <mxPoint x="570" y="650" />
            </Array>
          </mxGeometry>
        </mxCell>
        <mxCell id="T4Tz61koRvboAz-m1Axt-24" value="schema:creator&lt;div&gt;or&lt;/div&gt;&lt;div&gt;schema:manufacturer&lt;/div&gt;" style="edgeLabel;html=1;align=center;verticalAlign=middle;resizable=0;points=[];labelBackgroundColor=none;" vertex="1" connectable="0" parent="T4Tz61koRvboAz-m1Axt-20">
          <mxGeometry x="-0.2148" y="-4" relative="1" as="geometry">
            <mxPoint x="10" y="-34" as="offset" />
          </mxGeometry>
        </mxCell>
        <mxCell id="T4Tz61koRvboAz-m1Axt-22" style="edgeStyle=orthogonalEdgeStyle;rounded=0;orthogonalLoop=1;jettySize=auto;html=1;entryX=0.5;entryY=0;entryDx=0;entryDy=0;" edge="1" parent="1" source="T4Tz61koRvboAz-m1Axt-4" target="T4Tz61koRvboAz-m1Axt-21">
          <mxGeometry relative="1" as="geometry" />
        </mxCell>
        <mxCell id="T4Tz61koRvboAz-m1Axt-23" value="uo:references" style="edgeLabel;html=1;align=center;verticalAlign=middle;resizable=0;points=[];labelBackgroundColor=default;" vertex="1" connectable="0" parent="T4Tz61koRvboAz-m1Axt-22">
          <mxGeometry x="-0.175" y="4" relative="1" as="geometry">
            <mxPoint as="offset" />
          </mxGeometry>
        </mxCell>
        <mxCell id="T4Tz61koRvboAz-m1Axt-4" value="?" style="ellipse;whiteSpace=wrap;html=1;aspect=fixed;fillColor=#76608a;strokeColor=#432D57;fontColor=#ffffff;fontSize=15;fontStyle=1" vertex="1" parent="1">
          <mxGeometry x="355" y="580" width="140" height="140" as="geometry" />
        </mxCell>
        <mxCell id="T4Tz61koRvboAz-m1Axt-5" value="?" style="ellipse;whiteSpace=wrap;html=1;aspect=fixed;fillColor=#76608a;strokeColor=#432D57;fontColor=#ffffff;fontSize=15;fontStyle=1" vertex="1" parent="1">
          <mxGeometry x="170" y="400" width="70" height="70" as="geometry" />
        </mxCell>
        <mxCell id="T4Tz61koRvboAz-m1Axt-13" value="" style="endArrow=classic;html=1;rounded=0;" edge="1" parent="1">
          <mxGeometry width="50" height="50" relative="1" as="geometry">
            <mxPoint x="600" y="140" as="sourcePoint" />
            <mxPoint x="720" y="140" as="targetPoint" />
          </mxGeometry>
        </mxCell>
        <mxCell id="T4Tz61koRvboAz-m1Axt-26" value="RDF predicate" style="edgeLabel;html=1;align=center;verticalAlign=middle;resizable=0;points=[];" vertex="1" connectable="0" parent="T4Tz61koRvboAz-m1Axt-13">
          <mxGeometry x="-0.3833" y="-1" relative="1" as="geometry">
            <mxPoint x="23" y="-11" as="offset" />
          </mxGeometry>
        </mxCell>
        <mxCell id="T4Tz61koRvboAz-m1Axt-19" value="a schema:Organization" style="ellipse;whiteSpace=wrap;html=1;aspect=fixed;fillColor=#a0522d;strokeColor=#6D1F00;fontColor=#ffffff;fontSize=13;fontStyle=1" vertex="1" parent="1">
          <mxGeometry x="610" y="580" width="140" height="140" as="geometry" />
        </mxCell>
        <mxCell id="T4Tz61koRvboAz-m1Axt-21" value="URI externa" style="ellipse;whiteSpace=wrap;html=1;aspect=fixed;fillColor=#6d8764;strokeColor=#3A5431;fontColor=#ffffff;fontSize=15;fontStyle=1" vertex="1" parent="1">
          <mxGeometry x="385" y="800" width="80" height="80" as="geometry" />
        </mxCell>
        <mxCell id="T4Tz61koRvboAz-m1Axt-27" value="" style="shape=flexArrow;endArrow=classic;html=1;rounded=0;fillColor=#e51400;strokeColor=#B20000;" edge="1" parent="1">
          <mxGeometry width="50" height="50" relative="1" as="geometry">
            <mxPoint x="620" y="210" as="sourcePoint" />
            <mxPoint x="700" y="210" as="targetPoint" />
          </mxGeometry>
        </mxCell>
        <mxCell id="T4Tz61koRvboAz-m1Axt-28" value="Desplazamiento real a travÃ©s del teclado o&amp;nbsp;&lt;div&gt;&lt;div&gt;de la interfaz&lt;/div&gt;&lt;/div&gt;" style="edgeLabel;html=1;align=center;verticalAlign=middle;resizable=0;points=[];" vertex="1" connectable="0" parent="T4Tz61koRvboAz-m1Axt-27">
          <mxGeometry x="0.075" y="-3" relative="1" as="geometry">
            <mxPoint x="-3" y="-33" as="offset" />
          </mxGeometry>
        </mxCell>
        <mxCell id="T4Tz61koRvboAz-m1Axt-30" value="" style="shape=flexArrow;endArrow=classic;html=1;rounded=0;fillColor=#e51400;strokeColor=#B20000;" edge="1" parent="1">
          <mxGeometry width="50" height="50" relative="1" as="geometry">
            <mxPoint x="510" y="440" as="sourcePoint" />
            <mxPoint x="590" y="440" as="targetPoint" />
          </mxGeometry>
        </mxCell>
        <mxCell id="T4Tz61koRvboAz-m1Axt-32" value="" style="shape=flexArrow;endArrow=classic;html=1;rounded=0;fillColor=#e51400;strokeColor=#B20000;" edge="1" parent="1">
          <mxGeometry width="50" height="50" relative="1" as="geometry">
            <mxPoint x="354" y="330" as="sourcePoint" />
            <mxPoint x="354" y="250" as="targetPoint" />
          </mxGeometry>
        </mxCell>
        <mxCell id="T4Tz61koRvboAz-m1Axt-33" value="" style="shape=flexArrow;endArrow=classic;html=1;rounded=0;fillColor=#e51400;strokeColor=#B20000;" edge="1" parent="1">
          <mxGeometry width="50" height="50" relative="1" as="geometry">
            <mxPoint x="340" y="440" as="sourcePoint" />
            <mxPoint x="250" y="440" as="targetPoint" />
          </mxGeometry>
        </mxCell>
        <mxCell id="T4Tz61koRvboAz-m1Axt-34" value="Nodo previo visitado" style="edgeLabel;html=1;align=center;verticalAlign=middle;resizable=0;points=[];" vertex="1" connectable="0" parent="T4Tz61koRvboAz-m1Axt-33">
          <mxGeometry x="-0.1556" y="6" relative="1" as="geometry">
            <mxPoint x="-5" y="-36" as="offset" />
          </mxGeometry>
        </mxCell>
        <mxCell id="T4Tz61koRvboAz-m1Axt-35" value="" style="shape=flexArrow;endArrow=classic;html=1;rounded=0;fillColor=#e51400;strokeColor=#B20000;" edge="1" parent="1">
          <mxGeometry width="50" height="50" relative="1" as="geometry">
            <mxPoint x="490" y="500" as="sourcePoint" />
            <mxPoint x="490" y="570" as="targetPoint" />
          </mxGeometry>
        </mxCell>
        <mxCell id="T4Tz61koRvboAz-m1Axt-38" value="" style="shape=flexArrow;endArrow=classic;html=1;rounded=0;fillColor=#e51400;strokeColor=#B20000;" edge="1" parent="1">
          <mxGeometry width="50" height="50" relative="1" as="geometry">
            <mxPoint x="590" y="680" as="sourcePoint" />
            <mxPoint x="500" y="680" as="targetPoint" />
          </mxGeometry>
        </mxCell>
        <mxCell id="T4Tz61koRvboAz-m1Axt-41" value="" style="shape=flexArrow;endArrow=classic;html=1;rounded=0;fillColor=#e51400;strokeColor=#B20000;" edge="1" parent="1">
          <mxGeometry width="50" height="50" relative="1" as="geometry">
            <mxPoint x="355" y="720" as="sourcePoint" />
            <mxPoint x="355" y="790" as="targetPoint" />
          </mxGeometry>
        </mxCell>
        <mxCell id="T4Tz61koRvboAz-m1Axt-42" value="?" style="ellipse;whiteSpace=wrap;html=1;aspect=fixed;fillColor=#76608a;strokeColor=#432D57;fontColor=#ffffff;fontSize=15;fontStyle=1" vertex="1" parent="1">
          <mxGeometry x="170" y="600" width="70" height="70" as="geometry" />
        </mxCell>
        <mxCell id="T4Tz61koRvboAz-m1Axt-43" value="?" style="ellipse;whiteSpace=wrap;html=1;aspect=fixed;fillColor=#76608a;strokeColor=#432D57;fontColor=#ffffff;fontSize=15;fontStyle=1" vertex="1" parent="1">
          <mxGeometry x="170" y="135" width="70" height="70" as="geometry" />
        </mxCell>
        <mxCell id="T4Tz61koRvboAz-m1Axt-44" value="" style="shape=flexArrow;endArrow=classic;html=1;rounded=0;fillColor=#e51400;strokeColor=#B20000;" edge="1" parent="1">
          <mxGeometry width="50" height="50" relative="1" as="geometry">
            <mxPoint x="340" y="640" as="sourcePoint" />
            <mxPoint x="250" y="640" as="targetPoint" />
          </mxGeometry>
        </mxCell>
        <mxCell id="T4Tz61koRvboAz-m1Axt-45" value="Nodo previo visitado" style="edgeLabel;html=1;align=center;verticalAlign=middle;resizable=0;points=[];" vertex="1" connectable="0" parent="T4Tz61koRvboAz-m1Axt-44">
          <mxGeometry x="-0.1556" y="6" relative="1" as="geometry">
            <mxPoint x="-5" y="-36" as="offset" />
          </mxGeometry>
        </mxCell>
        <mxCell id="T4Tz61koRvboAz-m1Axt-46" value="" style="shape=flexArrow;endArrow=classic;html=1;rounded=0;fillColor=#e51400;strokeColor=#B20000;" edge="1" parent="1">
          <mxGeometry width="50" height="50" relative="1" as="geometry">
            <mxPoint x="340" y="169.5" as="sourcePoint" />
            <mxPoint x="250" y="169.5" as="targetPoint" />
          </mxGeometry>
        </mxCell>
        <mxCell id="T4Tz61koRvboAz-m1Axt-47" value="Nodo previo visitado" style="edgeLabel;html=1;align=center;verticalAlign=middle;resizable=0;points=[];" vertex="1" connectable="0" parent="T4Tz61koRvboAz-m1Axt-46">
          <mxGeometry x="-0.1556" y="6" relative="1" as="geometry">
            <mxPoint x="-5" y="-36" as="offset" />
          </mxGeometry>
        </mxCell>
      </root>
    </mxGraphModel>
  </diagram>
</mxfile>
